<svg xmlns="http://www.w3.org/2000/svg" width="764.47" height="467.369" viewBox="0 0 764.47 467.369">
  <g id="Layer_1" data-name="Layer 1" transform="translate(0 -0.001)">
    <g id="Group_6447" data-name="Group 6447">
      <g id="Group_6444" data-name="Group 6444">
        <g id="Group_6443" data-name="Group 6443">
          <path id="Path_4749" data-name="Path 4749" d="M310.18,235.63a205.81,205.81,0,0,1-30.43-30.24c14.62-1.29,29.6-4.79,41.61-12.37a40.825,40.825,0,0,1-11.17,42.61Z" fill="#fff"/>
          <path id="Path_4750" data-name="Path 4750" d="M340.08,226.39s16.82,17.06,11.94,36.2a232.334,232.334,0,0,1-32.61-19.86C327.04,239.71,334.7,234.69,340.08,226.39Z" fill="#fff"/>
          <path id="Path_4751" data-name="Path 4751" d="M509.13,41.78c-.42.08-.93.17-1.43.25-.08-.08-.08,0-.08,0-8.17,1.52-22.4,7.16-25.52,28.38l-7.66-28.88-17.6,22.99s-41.85-14.91-99.7,36.04c-56.34,49.77-89.68,44.97-91.28,44.71,1.6.67,30.82,11.7,72-18.44-1.18,1.68-30.06,42.02-69.56,62.9-25.43-38.82-32.67-83.03-15.41-120.76C283.87,1.19,382.23-20.28,472.5,20.98A237.279,237.279,0,0,1,509.13,41.78Z" fill="#fff"/>
          <path id="Path_4752" data-name="Path 4752" d="M579.86,218.53a85.58,85.58,0,0,1-4.72,8.67l.42.25a207.32,207.32,0,0,1-17.18,24.84,172.838,172.838,0,0,1-21.39,21.64,152.752,152.752,0,0,1-52.71,28.46,1.525,1.525,0,0,1-.42.08c-19.28,5.73-39.33,7.83-59.03,7.49a290.833,290.833,0,0,1-58.1-7.75c-37.98-8.76-74.02-23.41-108.54-40.42Q232.3,248.9,207.5,234c-16.42-9.94-32.67-20.29-48.17-31.66,16,10.69,32.59,20.38,49.35,29.56,16.84,9.18,34.02,17.77,51.54,25.6,34.95,15.49,71.16,28.38,108.46,35.37a281.08,281.08,0,0,0,56.17,5.14c18.69-.42,37.22-3.2,54.57-9.18,1.35-.5,2.95-1.09,4.55-1.77,6.82-2.86,12.72-8.08,14.99-15.16,3.2-9.94-.93-20.55-22.06-29.22-88.92-36.72-23.91-94.74-23.91-94.74s31.92,26.11,53.98,32.42c0,0-2.27,12.21,18.1,17.18,20.38,4.88,27.54-19.87,27.54-19.87L504.19,87.06s-11.62-32.25,6.74-44.04l.17.17C575.77,89,606.17,161.17,579.9,218.51Z" fill="#fff"/>
          <path id="Path_4753" data-name="Path 4753" d="M152.47,142.4l-20.73-10.13-46.17,3.85L2.56,114.02l56.47,43.34,24.41,45.03-.84-34.64,59.36,25.61,16.46-18.5L131.32,176,97.6,156.07Z" fill="#fff"/>
        </g>
        <path id="Path_4754" data-name="Path 4754" d="M579.86,218.53a85.58,85.58,0,0,1-4.72,8.67l.42.25a207.32,207.32,0,0,1-17.18,24.84,172.838,172.838,0,0,1-21.39,21.64,152.752,152.752,0,0,1-52.71,28.46,1.525,1.525,0,0,1-.42.08c174.65-80.08,32.84-252.46,27.2-259.28,64.67,45.81,95.07,117.98,68.8,175.32Z" fill="#fff"/>
        <path id="Path_4755" data-name="Path 4755" d="M509.13,41.78c-.42.08-.93.17-1.43.25-.08-.08-.08,0-.08,0C484.46,33.78,351.66-8.58,286.49,70.58c-27.2,33.01-33.09,78.65-18.36,118.73l.17.42c-25.43-38.82-32.67-83.03-15.41-120.76C283.87,1.19,382.23-20.28,472.5,20.98A237.279,237.279,0,0,1,509.13,41.78Z" fill="#fff"/>
      </g>
      <g id="Group_6445" data-name="Group 6445">
        <path id="Path_4756" data-name="Path 4756" d="M75.8,444.55l-3.62,3.19c-1.27-1.77-2.57-2.65-3.88-2.65a2.353,2.353,0,0,0-1.57.51,1.485,1.485,0,0,0-.61,1.16,1.928,1.928,0,0,0,.44,1.22,33.119,33.119,0,0,0,3.58,3.3q2.79,2.34,3.39,2.95a10.161,10.161,0,0,1,2.1,2.87,7.242,7.242,0,0,1,.62,2.99,6.874,6.874,0,0,1-2.18,5.22,7.988,7.988,0,0,1-5.69,2.06,8.526,8.526,0,0,1-4.78-1.34,10.611,10.611,0,0,1-3.48-4.22l4.11-2.48c1.23,2.27,2.66,3.4,4.26,3.4a3.159,3.159,0,0,0,2.12-.73,2.172,2.172,0,0,0,.85-1.69,2.948,2.948,0,0,0-.65-1.75,18.7,18.7,0,0,0-2.85-2.67,28.753,28.753,0,0,1-5.42-5.28,6.658,6.658,0,0,1-1.22-3.71,6.075,6.075,0,0,1,2.03-4.58,7.077,7.077,0,0,1,5.02-1.91,7.973,7.973,0,0,1,3.66.89,13.213,13.213,0,0,1,3.76,3.24Z" fill="#fff"/>
        <path id="Path_4757" data-name="Path 4757" d="M81.96,441.05H96.15v4.82H91.47v20.85H86.51V445.87H81.96Z" fill="#fff"/>
        <path id="Path_4758" data-name="Path 4758" d="M103.4,441.05h5.18a17.044,17.044,0,0,1,6.06.76,6.2,6.2,0,0,1,2.9,2.52,7.768,7.768,0,0,1,1.1,4.17,7.073,7.073,0,0,1-1.21,4.23,7.477,7.477,0,0,1-3.65,2.58l6.08,11.41h-5.34l-5.77-10.87h-.45v10.87h-4.88V441.05Zm4.88,10.04h1.53a6.088,6.088,0,0,0,3.21-.61,2.3,2.3,0,0,0,.88-2.03,2.467,2.467,0,0,0-.43-1.46,2.425,2.425,0,0,0-1.17-.89,8.9,8.9,0,0,0-2.68-.27h-1.34v5.27Z" fill="#fff"/>
        <path id="Path_4759" data-name="Path 4759" d="M127.39,441.05H141.4v4.78h-9.16v4.64h9.16v4.69h-9.16v6.75h9.16v4.8H127.39V441.04Z" fill="#fff"/>
        <path id="Path_4760" data-name="Path 4760" d="M157.37,441.05h4.96l9.87,25.67h-5.08l-2.01-5.29H154.63l-2.09,5.29h-5.08l9.9-25.67Zm2.51,6.81-3.44,8.81h6.87l-3.42-8.81Z" fill="#fff"/>
        <path id="Path_4761" data-name="Path 4761" d="M182.03,441.05h4.76l5.95,17.9,6.01-17.9h4.76l4.31,25.67H203.1l-2.75-16.21-5.45,16.21h-4.31l-5.41-16.21-2.82,16.21h-4.77l4.44-25.67Z" fill="#fff"/>
        <path id="Path_4762" data-name="Path 4762" d="M215.28,441.05h4.89v21.01h7.12v4.66H215.28Z" fill="#fff"/>
        <path id="Path_4763" data-name="Path 4763" d="M234.23,441.05h4.85v25.67h-4.85Z" fill="#fff"/>
        <path id="Path_4764" data-name="Path 4764" d="M248.17,441.05h4.69l10.98,16.89V441.05h4.89v25.67h-4.7l-10.97-16.84v16.84h-4.89Z" fill="#fff"/>
        <path id="Path_4765" data-name="Path 4765" d="M278.17,441.05h14.01v4.78h-9.16v4.64h9.16v4.69h-9.16v6.75h9.16v4.8H278.17V441.04Z" fill="#fff"/>
        <path id="Path_4766" data-name="Path 4766" d="M300.33,441.05h5.79q5.6,0,8.31,1.39a10.812,10.812,0,0,1,4.48,4.51,15.771,15.771,0,0,1,.77,12.74,11.277,11.277,0,0,1-2.72,4.13,9.569,9.569,0,0,1-3.76,2.27,26.669,26.669,0,0,1-7.01.63h-5.88V441.05Zm4.85,4.71v16.19h2.27a11.385,11.385,0,0,0,4.86-.77,5.761,5.761,0,0,0,2.47-2.59,9.5,9.5,0,0,0,.96-4.47,8.468,8.468,0,0,0-2.29-6.34c-1.37-1.35-3.58-2.02-6.61-2.02h-1.66Z" fill="#fff"/>
        <path id="Path_4767" data-name="Path 4767" d="M342.47,441.05h4.96v9.69H356v-9.69h4.94v25.67H356V455.46h-8.57v11.26h-4.96Z" fill="#fff"/>
        <path id="Path_4768" data-name="Path 4768" d="M382.49,440.41a12.8,12.8,0,0,1,9.37,3.94,13.151,13.151,0,0,1,3.92,9.62,12.912,12.912,0,0,1-3.87,9.51,12.721,12.721,0,0,1-9.38,3.89,13,13,0,0,1-9.6-4,13.709,13.709,0,0,1-2.05-16.26,13.467,13.467,0,0,1,11.61-6.7Zm-.05,4.78a8.058,8.058,0,0,0-5.99,2.48,8.619,8.619,0,0,0-2.43,6.3,8.223,8.223,0,0,0,3.06,6.74,8.383,8.383,0,0,0,5.45,1.94,7.966,7.966,0,0,0,5.92-2.51,9.07,9.07,0,0,0-.02-12.4,8.041,8.041,0,0,0-5.99-2.54Z" fill="#fff"/>
        <path id="Path_4769" data-name="Path 4769" d="M404.29,441.05h5.18a17.044,17.044,0,0,1,6.06.76,6.2,6.2,0,0,1,2.9,2.52,7.767,7.767,0,0,1,1.1,4.17,7.073,7.073,0,0,1-1.21,4.23,7.477,7.477,0,0,1-3.65,2.58l6.08,11.41h-5.34l-5.77-10.87h-.45v10.87H404.3V441.05Zm4.89,10.04h1.53a6.088,6.088,0,0,0,3.21-.61,2.3,2.3,0,0,0,.88-2.03,2.467,2.467,0,0,0-.43-1.46,2.425,2.425,0,0,0-1.17-.89,8.9,8.9,0,0,0-2.68-.27h-1.34v5.27Z" fill="#fff"/>
        <path id="Path_4770" data-name="Path 4770" d="M441.73,444.55l-3.62,3.19c-1.27-1.77-2.57-2.65-3.88-2.65a2.353,2.353,0,0,0-1.57.51,1.485,1.485,0,0,0-.61,1.16,1.928,1.928,0,0,0,.44,1.22,34.211,34.211,0,0,0,3.58,3.3q2.79,2.34,3.39,2.95a10.161,10.161,0,0,1,2.1,2.87,7.242,7.242,0,0,1,.62,2.99,6.874,6.874,0,0,1-2.18,5.22,7.988,7.988,0,0,1-5.69,2.06,8.526,8.526,0,0,1-4.78-1.34,10.611,10.611,0,0,1-3.48-4.22l4.11-2.48c1.23,2.27,2.66,3.4,4.26,3.4a3.158,3.158,0,0,0,2.12-.73,2.172,2.172,0,0,0,.85-1.69,2.948,2.948,0,0,0-.65-1.75,18.7,18.7,0,0,0-2.85-2.67,28.753,28.753,0,0,1-5.42-5.28,6.658,6.658,0,0,1-1.22-3.71,6.075,6.075,0,0,1,2.03-4.58,7.077,7.077,0,0,1,5.02-1.91,7.973,7.973,0,0,1,3.66.89,13.081,13.081,0,0,1,3.76,3.24Z" fill="#fff"/>
        <path id="Path_4771" data-name="Path 4771" d="M450.43,441.05h14.01v4.78h-9.16v4.64h9.16v4.69h-9.16v6.75h9.16v4.8H450.43V441.04Z" fill="#fff"/>
        <path id="Path_4772" data-name="Path 4772" d="M483.62,441.05h14.19v4.82h-4.68v20.85h-4.96V445.87h-4.55v-4.82Z" fill="#fff"/>
        <path id="Path_4773" data-name="Path 4773" d="M505.06,441.05h5.18a17.044,17.044,0,0,1,6.06.76,6.2,6.2,0,0,1,2.9,2.52,7.768,7.768,0,0,1,1.1,4.17,7.073,7.073,0,0,1-1.21,4.23,7.477,7.477,0,0,1-3.65,2.58l6.08,11.41h-5.34l-5.77-10.87h-.45v10.87h-4.88V441.05Zm4.88,10.04h1.53a6.088,6.088,0,0,0,3.21-.61,2.3,2.3,0,0,0,.88-2.03,2.467,2.467,0,0,0-.43-1.46,2.425,2.425,0,0,0-1.17-.89,8.9,8.9,0,0,0-2.68-.27h-1.34v5.27Z" fill="#fff"/>
        <path id="Path_4774" data-name="Path 4774" d="M536.87,441.05h4.96l9.87,25.67h-5.08l-2.01-5.29H534.13l-2.09,5.29h-5.08l9.9-25.67Zm2.51,6.81-3.44,8.81h6.87l-3.42-8.81Z" fill="#fff"/>
        <path id="Path_4775" data-name="Path 4775" d="M559.06,441.05h4.69l10.98,16.89V441.05h4.89v25.67h-4.7l-10.97-16.84v16.84h-4.89Z" fill="#fff"/>
        <path id="Path_4776" data-name="Path 4776" d="M602.53,444.55l-3.62,3.19c-1.27-1.77-2.57-2.65-3.88-2.65a2.353,2.353,0,0,0-1.57.51,1.485,1.485,0,0,0-.61,1.16,1.928,1.928,0,0,0,.44,1.22,33.123,33.123,0,0,0,3.58,3.3q2.79,2.34,3.39,2.95a10.16,10.16,0,0,1,2.1,2.87,7.242,7.242,0,0,1,.62,2.99,6.874,6.874,0,0,1-2.18,5.22,7.988,7.988,0,0,1-5.69,2.06,8.526,8.526,0,0,1-4.78-1.34,10.61,10.61,0,0,1-3.48-4.22l4.11-2.48c1.23,2.27,2.66,3.4,4.26,3.4a3.14,3.14,0,0,0,2.12-.73,2.172,2.172,0,0,0,.85-1.69,2.947,2.947,0,0,0-.65-1.75,18.7,18.7,0,0,0-2.85-2.67,28.753,28.753,0,0,1-5.42-5.28,6.658,6.658,0,0,1-1.22-3.71,6.075,6.075,0,0,1,2.03-4.58,7.077,7.077,0,0,1,5.02-1.91,7.973,7.973,0,0,1,3.66.89,13.082,13.082,0,0,1,3.76,3.24Z" fill="#fff"/>
        <path id="Path_4777" data-name="Path 4777" d="M611.2,441.05h5.18a16.975,16.975,0,0,1,6.06.78,6.181,6.181,0,0,1,2.93,2.51,7.712,7.712,0,0,1,1.07,4.16,6.992,6.992,0,0,1-1.4,4.46,7.326,7.326,0,0,1-3.81,2.48,21.813,21.813,0,0,1-5.15.4v10.87h-4.89V441.04Zm4.89,10.04h1.55a8.621,8.621,0,0,0,2.55-.26,2.217,2.217,0,0,0,1.12-.87,2.558,2.558,0,0,0,.41-1.46,2.346,2.346,0,0,0-1.15-2.17,6.541,6.541,0,0,0-3.11-.51h-1.38v5.27Z" fill="#fff"/>
        <path id="Path_4778" data-name="Path 4778" d="M646.92,440.41a12.8,12.8,0,0,1,9.37,3.94,13.151,13.151,0,0,1,3.92,9.62,12.912,12.912,0,0,1-3.87,9.51,12.721,12.721,0,0,1-9.38,3.89,13,13,0,0,1-9.6-4,13.708,13.708,0,0,1-2.05-16.26,13.069,13.069,0,0,1,4.9-4.89,13.223,13.223,0,0,1,6.71-1.81Zm-.05,4.78a8.058,8.058,0,0,0-5.99,2.48,8.619,8.619,0,0,0-2.43,6.3,8.223,8.223,0,0,0,3.06,6.74,8.383,8.383,0,0,0,5.45,1.94,7.966,7.966,0,0,0,5.92-2.51,9.07,9.07,0,0,0-.02-12.4,8.041,8.041,0,0,0-5.99-2.54Z" fill="#fff"/>
        <path id="Path_4779" data-name="Path 4779" d="M668.72,441.05h5.18a17.044,17.044,0,0,1,6.06.76,6.2,6.2,0,0,1,2.9,2.52,7.768,7.768,0,0,1,1.1,4.17,7.073,7.073,0,0,1-1.21,4.23,7.477,7.477,0,0,1-3.65,2.58l6.08,11.41h-5.34l-5.77-10.87h-.45v10.87h-4.89V441.05Zm4.89,10.04h1.53a6.089,6.089,0,0,0,3.21-.61,2.3,2.3,0,0,0,.88-2.03,2.467,2.467,0,0,0-.43-1.46,2.425,2.425,0,0,0-1.17-.89,8.9,8.9,0,0,0-2.68-.27h-1.34v5.27Z" fill="#fff"/>
        <path id="Path_4780" data-name="Path 4780" d="M690.17,441.05h14.19v4.82h-4.68v20.85h-4.96V445.87h-4.55Z" fill="#fff"/>
      </g>
      <g id="Group_6446" data-name="Group 6446">
        <path id="Path_4781" data-name="Path 4781" d="M14.92,331.45H30.9l19.97,60.09,20.15-60.09H86.99l14.45,86.16H85.58L76.34,363.2l-18.3,54.41H43.59L25.45,363.2l-9.46,54.41H0Z" fill="#fff"/>
        <path id="Path_4782" data-name="Path 4782" d="M164.58,353.88h15.99V417.6H164.58v-6.73a31.133,31.133,0,0,1-9.39,6.41,26.237,26.237,0,0,1-10.21,1.96q-12.345,0-21.35-9.58t-9.01-23.81c0-9.49,2.91-17.9,8.72-24.19a27.759,27.759,0,0,1,21.18-9.43,26.8,26.8,0,0,1,10.76,2.17,29.4,29.4,0,0,1,9.3,6.5v-7.03ZM147.77,367a16.181,16.181,0,0,0-12.32,5.24q-4.905,5.25-4.9,13.44a19.152,19.152,0,0,0,4.99,13.59,16.184,16.184,0,0,0,12.29,5.33,16.7,16.7,0,0,0,12.49-5.24q4.95-5.235,4.96-13.73c0-5.66-1.65-10.03-4.96-13.47a16.663,16.663,0,0,0-12.55-5.15Z" fill="#fff"/>
        <path id="Path_4783" data-name="Path 4783" d="M201.53,353.88h15.99v6.53a38.4,38.4,0,0,1,9.86-6.38,23.871,23.871,0,0,1,9.03-1.79,21.862,21.862,0,0,1,16.08,6.62q5.55,5.625,5.56,16.63V417.6H242.24V389.69c0-7.61-.34-12.65-1.02-15.15a10.34,10.34,0,0,0-3.56-5.7,9.972,9.972,0,0,0-6.28-1.96,11.73,11.73,0,0,0-8.32,3.25,17.3,17.3,0,0,0-4.82,8.98q-.705,2.985-.7,12.93v25.57H201.55V353.89Z" fill="#fff"/>
        <path id="Path_4784" data-name="Path 4784" d="M342.15,390.37H290.78a17.113,17.113,0,0,0,5.94,10.81q4.83,4.02,12.33,4.01a21.3,21.3,0,0,0,15.4-6.27l13.47,6.33a31.78,31.78,0,0,1-12.07,10.57,37.8,37.8,0,0,1-16.69,3.43q-14.985,0-24.42-9.46t-9.43-23.69c0-9.49,3.13-17.79,9.4-24.22s14.12-9.64,23.57-9.64q15.045,0,24.48,9.64t9.43,25.45l-.06,3.05Zm-15.99-12.59a16.094,16.094,0,0,0-6.25-8.67,18.09,18.09,0,0,0-10.82-3.34,19.115,19.115,0,0,0-11.73,3.75q-3.165,2.34-5.87,8.26h34.67Z" fill="#fff"/>
        <path id="Path_4785" data-name="Path 4785" d="M398.9,362.79l-9.9,9.9q-6.03-5.97-10.95-5.97a6.914,6.914,0,0,0-4.22,1.14,3.4,3.4,0,0,0-.55,5.21,18.128,18.128,0,0,0,4.77,2.96l5.86,2.93q9.255,4.56,12.71,9.31a19.384,19.384,0,0,1-2.78,25.3q-6.24,5.685-16.72,5.68-13.935,0-22.26-10.89l9.84-10.72a22.78,22.78,0,0,0,6.59,5.3,14.543,14.543,0,0,0,6.71,2.02,7.993,7.993,0,0,0,5.09-1.52,4.4,4.4,0,0,0,1.93-3.51q0-3.69-6.97-7.2l-5.39-2.69q-15.465-7.785-15.46-19.5a16.927,16.927,0,0,1,5.83-12.92q5.835-5.355,14.91-5.36A25.829,25.829,0,0,1,398.9,362.8Z" fill="#fff"/>
        <path id="Path_4786" data-name="Path 4786" d="M419.39,330.4h15.99v23.49h9.49v13.76h-9.49v49.96H419.39V367.65h-8.2V353.89h8.2Z" fill="#fff"/>
        <path id="Path_4787" data-name="Path 4787" d="M454.47,353.88h13.7v8.02a17.107,17.107,0,0,1,5.92-7.2,14.26,14.26,0,0,1,8.08-2.46,14.978,14.978,0,0,1,6.5,1.64l-4.98,13.76a11.005,11.005,0,0,0-4.63-1.41q-3.69,0-6.24,4.57t-2.55,17.92l.06,3.1v25.77H454.46V353.87Z" fill="#fff"/>
        <path id="Path_4788" data-name="Path 4788" d="M565.22,390.37H513.85a17.113,17.113,0,0,0,5.94,10.81q4.83,4.02,12.33,4.01a21.3,21.3,0,0,0,15.4-6.27l13.47,6.33a31.78,31.78,0,0,1-12.07,10.57,37.8,37.8,0,0,1-16.69,3.43q-14.985,0-24.42-9.46t-9.43-23.69c0-9.49,3.13-17.79,9.4-24.22s14.12-9.64,23.57-9.64q15.045,0,24.48,9.64t9.43,25.45l-.06,3.05Zm-15.99-12.59a16.094,16.094,0,0,0-6.25-8.67,18.09,18.09,0,0,0-10.82-3.34,19.115,19.115,0,0,0-11.73,3.75q-3.165,2.34-5.87,8.26Z" fill="#fff"/>
        <path id="Path_4789" data-name="Path 4789" d="M630,353.88h15.99V417.6H630v-6.73a31.133,31.133,0,0,1-9.39,6.41,26.237,26.237,0,0,1-10.21,1.96q-12.345,0-21.35-9.58t-9.01-23.81c0-9.49,2.91-17.9,8.72-24.19a27.759,27.759,0,0,1,21.18-9.43,26.8,26.8,0,0,1,10.76,2.17,29.4,29.4,0,0,1,9.3,6.5v-7.03ZM613.19,367a16.181,16.181,0,0,0-12.32,5.24q-4.905,5.25-4.9,13.44a19.152,19.152,0,0,0,4.99,13.59,16.184,16.184,0,0,0,12.29,5.33,16.7,16.7,0,0,0,12.49-5.24q4.95-5.235,4.96-13.73c0-5.66-1.65-10.03-4.96-13.47a16.663,16.663,0,0,0-12.55-5.15Z" fill="#fff"/>
        <path id="Path_4790" data-name="Path 4790" d="M666.83,353.88h15.99v7.32a27.121,27.121,0,0,1,9.11-6.73,26.669,26.669,0,0,1,10.93-2.23,20.4,20.4,0,0,1,10.78,2.93,21.149,21.149,0,0,1,7.74,8.55,25.809,25.809,0,0,1,9.35-8.55,25.519,25.519,0,0,1,12.1-2.93,22.813,22.813,0,0,1,11.96,3.16,18.306,18.306,0,0,1,7.42,8.26q2.25,5.1,2.26,16.58v37.37H748.36V385.28q0-10.83-2.69-14.67t-8.08-3.84a12.284,12.284,0,0,0-7.35,2.34,13.861,13.861,0,0,0-4.83,6.47q-1.575,4.125-1.58,13.27v28.76H707.72V386.74q0-8.55-1.26-12.39a11.149,11.149,0,0,0-3.79-5.71,9.951,9.951,0,0,0-6.11-1.87,12.035,12.035,0,0,0-7.25,2.37,14.185,14.185,0,0,0-4.87,6.65q-1.62,4.275-1.61,13.47v28.35H666.84V353.89Z" fill="#fff"/>
      </g>
    </g>
  </g>
</svg>
