<svg xmlns="http://www.w3.org/2000/svg" width="495.686" height="109.218" viewBox="0 0 495.686 109.218">
  <g id="Group_6447" data-name="Group 6447" transform="translate(-2.56 -0.001)">
    <g id="Group_6444" data-name="Group 6444" transform="translate(2.56 0.001)">
      <g id="Group_6443" data-name="Group 6443" transform="translate(0 0)">
        <path id="Path_4749" data-name="Path 4749" d="M290.471,208.032a72.512,72.512,0,0,1-10.721-10.654c5.151-.454,10.429-1.688,14.66-4.358a14.384,14.384,0,0,1-3.935,15.012Z" transform="translate(-182.09 -125.015)" fill="#ef5b15"/>
        <path id="Path_4750" data-name="Path 4750" d="M326.692,226.39s5.926,6.011,4.207,12.754a81.855,81.855,0,0,1-11.489-7A15.064,15.064,0,0,0,326.692,226.39Z" transform="translate(-207.777 -146.628)" fill="#ef5b15"/>
        <path id="Path_4751" data-name="Path 4751" d="M337.07,14.721c-.148.028-.328.06-.5.088-.028-.028-.028,0-.028,0-2.879.536-7.892,2.523-8.991,10l-2.7-10.175-6.2,8.1s-14.745-5.253-35.127,12.7c-19.85,17.535-31.6,15.844-32.16,15.752.564.236,10.859,4.122,25.367-6.5-.416.592-10.591,14.8-24.508,22.161-8.96-13.677-11.51-29.253-5.429-42.546C257.706.42,292.361-7.145,324.165,7.392A83.594,83.594,0,0,1,337.07,14.721Z" transform="translate(-158.595 -0.001)" fill="#ef5b15"/>
        <path id="Path_4752" data-name="Path 4752" d="M307.492,104.856a30.14,30.14,0,0,1-1.663,3.055l.148.088a73.044,73.044,0,0,1-6.053,8.752,60.894,60.894,0,0,1-7.536,7.624A53.818,53.818,0,0,1,273.817,134.4a.537.537,0,0,1-.148.028,68.851,68.851,0,0,1-20.8,2.639,102.468,102.468,0,0,1-20.47-2.73c-13.381-3.086-26.079-8.248-38.241-14.241q-9.122-4.54-17.859-9.791c-5.785-3.5-11.51-7.149-16.971-11.155,5.637,3.766,11.482,7.18,17.387,10.415,5.933,3.234,11.986,6.261,18.159,9.019,12.314,5.457,25.071,10,38.213,12.462a99.032,99.032,0,0,0,19.79,1.811,63.409,63.409,0,0,0,19.226-3.234c.476-.176,1.039-.384,1.6-.624a9.015,9.015,0,0,0,5.281-5.341c1.127-3.5-.328-7.24-7.772-10.295-31.328-12.937-8.424-33.379-8.424-33.379s11.246,9.2,19.018,11.422c0,0-.8,4.3,6.377,6.053,7.18,1.719,9.7-7,9.7-7L280.832,58.536s-4.094-11.362,2.375-15.516l.06.06c22.785,16.14,33.5,41.567,24.24,61.769Z" transform="translate(-104.096 -27.863)" fill="#483c32"/>
        <path id="Path_4753" data-name="Path 4753" d="M55.377,124.019l-7.3-3.569-16.267,1.356L2.56,114.02l19.9,15.27,8.6,15.865-.3-12.2,20.914,9.023,5.8-6.518-9.548.4-11.88-7.022Z" transform="translate(-2.56 -73.848)" fill="#2d221a"/>
      </g>
      <path id="Path_4754" data-name="Path 4754" d="M517.683,104.966a30.157,30.157,0,0,1-1.663,3.055l.148.088a73.043,73.043,0,0,1-6.053,8.752,60.9,60.9,0,0,1-7.536,7.624,53.819,53.819,0,0,1-18.571,10.027.537.537,0,0,1-.148.028c61.533-28.214,11.57-88.947,9.583-91.35,22.785,16.14,33.5,41.567,24.24,61.769Z" transform="translate(-314.287 -27.973)" fill="#2d221a"/>
      <path id="Path_4755" data-name="Path 4755" d="M337.07,14.721c-.148.028-.328.06-.5.088-.028-.028-.028,0-.028,0-8.16-2.907-54.948-17.831-77.909,10.059-9.583,11.63-11.658,27.71-6.469,41.831l.06.148c-8.96-13.677-11.51-29.253-5.429-42.546C257.706.42,292.361-7.145,324.165,7.392A83.594,83.594,0,0,1,337.07,14.721Z" transform="translate(-158.595 -0.001)" fill="#d33d02"/>
    </g>
    <g id="Group_6446" data-name="Group 6446" transform="translate(228.906 38.457)">
      <path id="Path_4781" data-name="Path 4781" d="M5.257,331.45h5.63l7.036,21.171,7.1-21.171h5.627l5.091,30.356H30.152L26.9,342.636l-6.448,19.17H15.358l-6.391-19.17-3.333,19.17H0Z" transform="translate(0 -331.08)" fill="#ef5b15"/>
      <path id="Path_4782" data-name="Path 4782" d="M132.222,352.811h5.634v22.45h-5.634V372.89a10.969,10.969,0,0,1-3.308,2.258,9.245,9.245,0,0,1-3.6.691,9.98,9.98,0,0,1-7.522-3.375,11.762,11.762,0,0,1-3.174-8.389,12.276,12.276,0,0,1,3.072-8.523,9.78,9.78,0,0,1,7.462-3.322,9.443,9.443,0,0,1,3.791.765,10.357,10.357,0,0,1,3.277,2.29v-2.477Zm-5.923,4.622a5.7,5.7,0,0,0-4.341,1.846,6.659,6.659,0,0,0-1.726,4.735,6.748,6.748,0,0,0,1.758,4.788,5.7,5.7,0,0,0,4.33,1.878,5.884,5.884,0,0,0,4.4-1.846A6.756,6.756,0,0,0,132.469,364a6.489,6.489,0,0,0-1.748-4.746,5.871,5.871,0,0,0-4.422-1.814Z" transform="translate(-74.237 -344.539)" fill="#ef5b15"/>
      <path id="Path_4783" data-name="Path 4783" d="M201.53,352.818h5.634v2.3a13.529,13.529,0,0,1,3.474-2.248,8.411,8.411,0,0,1,3.181-.631,7.7,7.7,0,0,1,5.665,2.332q1.955,1.982,1.959,5.859v14.836h-5.57v-9.833a24.929,24.929,0,0,0-.359-5.338,3.643,3.643,0,0,0-1.254-2.008,3.513,3.513,0,0,0-2.213-.691,4.133,4.133,0,0,0-2.931,1.145,6.1,6.1,0,0,0-1.7,3.164,25.448,25.448,0,0,0-.247,4.556v9.009h-5.634v-22.45Z" transform="translate(-130.526 -344.545)" fill="#ef5b15"/>
      <path id="Path_4784" data-name="Path 4784" d="M298.859,365.674h-18.1a6.029,6.029,0,0,0,2.093,3.809A6.561,6.561,0,0,0,287.2,370.9a7.5,7.5,0,0,0,5.426-2.209l4.746,2.23a11.2,11.2,0,0,1-4.252,3.724,13.319,13.319,0,0,1-5.88,1.208,11.615,11.615,0,0,1-8.6-3.333,11.337,11.337,0,0,1-3.322-8.346,11.858,11.858,0,0,1,3.312-8.533,11.127,11.127,0,0,1,8.3-3.4,11.531,11.531,0,0,1,8.625,3.4,12.263,12.263,0,0,1,3.322,8.967l-.021,1.075Zm-5.634-4.436a5.67,5.67,0,0,0-2.2-3.055,6.373,6.373,0,0,0-3.812-1.177,6.735,6.735,0,0,0-4.133,1.321,7.378,7.378,0,0,0-2.068,2.91Z" transform="translate(-178.312 -344.545)" fill="#ef5b15"/>
      <path id="Path_4785" data-name="Path 4785" d="M370.376,355.97l-3.488,3.488q-2.124-2.1-3.858-2.1a2.436,2.436,0,0,0-1.487.4,1.2,1.2,0,0,0-.194,1.836,6.385,6.385,0,0,0,1.681,1.043l2.065,1.032a12.136,12.136,0,0,1,4.478,3.28,6.829,6.829,0,0,1-.979,8.914,8.408,8.408,0,0,1-5.891,2,9.372,9.372,0,0,1-7.843-3.837l3.467-3.777a8.026,8.026,0,0,0,2.322,1.867,5.124,5.124,0,0,0,2.364.712,2.816,2.816,0,0,0,1.793-.536,1.551,1.551,0,0,0,.68-1.237q0-1.3-2.456-2.537l-1.9-.948q-5.449-2.743-5.447-6.87a5.964,5.964,0,0,1,2.054-4.552,7.462,7.462,0,0,1,5.253-1.888,9.1,9.1,0,0,1,7.385,3.713Z" transform="translate(-229.835 -344.558)" fill="#483c32"/>
      <path id="Path_4786" data-name="Path 4786" d="M414.079,330.4h5.634v8.276h3.344v4.848h-3.344v17.6h-5.634v-17.6H411.19v-4.848h2.889Z" transform="translate(-266.319 -330.4)" fill="#483c32"/>
      <path id="Path_4787" data-name="Path 4787" d="M454.464,352.818h4.827v2.826a6.027,6.027,0,0,1,2.086-2.537,5.024,5.024,0,0,1,2.847-.867,5.277,5.277,0,0,1,2.29.578l-1.755,4.848a3.877,3.877,0,0,0-1.631-.5,2.579,2.579,0,0,0-2.2,1.61q-.9,1.607-.9,6.314l.021,1.092v9.079H454.46v-22.45Z" transform="translate(-294.344 -344.545)" fill="#483c32"/>
      <path id="Path_4788" data-name="Path 4788" d="M521.929,365.674h-18.1a6.029,6.029,0,0,0,2.093,3.809,6.561,6.561,0,0,0,4.344,1.413,7.505,7.505,0,0,0,5.426-2.209l4.746,2.23a11.2,11.2,0,0,1-4.252,3.724,13.319,13.319,0,0,1-5.88,1.208,11.615,11.615,0,0,1-8.6-3.333,11.337,11.337,0,0,1-3.322-8.346,11.858,11.858,0,0,1,3.312-8.533,11.127,11.127,0,0,1,8.3-3.4,11.53,11.53,0,0,1,8.625,3.4,12.263,12.263,0,0,1,3.322,8.967l-.021,1.075Zm-5.634-4.436a5.671,5.671,0,0,0-2.2-3.055,6.373,6.373,0,0,0-3.812-1.177,6.735,6.735,0,0,0-4.133,1.321,7.378,7.378,0,0,0-2.068,2.91Z" transform="translate(-322.789 -344.545)" fill="#483c32"/>
      <path id="Path_4789" data-name="Path 4789" d="M597.642,352.811h5.634v22.45h-5.634V372.89a10.969,10.969,0,0,1-3.308,2.258,9.244,9.244,0,0,1-3.6.691,9.98,9.98,0,0,1-7.522-3.375,11.762,11.762,0,0,1-3.174-8.389,12.276,12.276,0,0,1,3.072-8.523,9.78,9.78,0,0,1,7.462-3.322,9.443,9.443,0,0,1,3.791.765,10.357,10.357,0,0,1,3.277,2.29v-2.477Zm-5.923,4.622a5.7,5.7,0,0,0-4.341,1.846,6.659,6.659,0,0,0-1.726,4.735,6.748,6.748,0,0,0,1.758,4.788,5.7,5.7,0,0,0,4.33,1.878,5.885,5.885,0,0,0,4.4-1.846A6.757,6.757,0,0,0,597.889,364a6.489,6.489,0,0,0-1.747-4.746,5.871,5.871,0,0,0-4.422-1.814Z" transform="translate(-375.679 -344.539)" fill="#483c32"/>
      <path id="Path_4790" data-name="Path 4790" d="M666.83,352.818h5.634V355.4a9.557,9.557,0,0,1,3.21-2.371,9.4,9.4,0,0,1,3.851-.786,7.187,7.187,0,0,1,3.8,1.032,7.45,7.45,0,0,1,2.727,3.012,9.093,9.093,0,0,1,3.294-3.012,8.991,8.991,0,0,1,4.263-1.032,8.038,8.038,0,0,1,4.214,1.113,6.45,6.45,0,0,1,2.614,2.91,15.579,15.579,0,0,1,.8,5.841v13.166h-5.676V363.881q0-3.816-.948-5.169a3.25,3.25,0,0,0-2.847-1.353,4.328,4.328,0,0,0-2.59.824,4.883,4.883,0,0,0-1.7,2.28,14.207,14.207,0,0,0-.557,4.675v10.133h-5.676V364.4a15.348,15.348,0,0,0-.444-4.365,3.928,3.928,0,0,0-1.335-2.012,3.506,3.506,0,0,0-2.153-.659,4.24,4.24,0,0,0-2.554.835,5,5,0,0,0-1.716,2.343,14.443,14.443,0,0,0-.567,4.746v9.988h-5.634v-22.45Z" transform="translate(-431.891 -344.545)" fill="#483c32"/>
    </g>
    <g id="Group_6445" data-name="Group 6445" transform="translate(228.906 81.876)">
      <path id="Path_4756" data-name="Path 4756" d="M65.86,441.926l-1.325,1.168a1.879,1.879,0,0,0-1.42-.97.861.861,0,0,0-.575.187.544.544,0,0,0-.223.425.706.706,0,0,0,.161.447,12.123,12.123,0,0,0,1.311,1.208q1.021.857,1.241,1.08a3.72,3.72,0,0,1,.769,1.051,2.651,2.651,0,0,1,.227,1.095,2.517,2.517,0,0,1-.8,1.911,2.924,2.924,0,0,1-2.083.754,3.121,3.121,0,0,1-1.75-.491,3.885,3.885,0,0,1-1.274-1.545l1.5-.908c.45.831.974,1.245,1.56,1.245a1.156,1.156,0,0,0,.776-.267.8.8,0,0,0,.311-.619,1.079,1.079,0,0,0-.238-.641,6.845,6.845,0,0,0-1.043-.977,10.526,10.526,0,0,1-1.984-1.933,2.437,2.437,0,0,1-.447-1.358,2.224,2.224,0,0,1,.743-1.677,2.591,2.591,0,0,1,1.838-.7,2.919,2.919,0,0,1,1.34.326,4.838,4.838,0,0,1,1.377,1.186Z" transform="translate(-60.12 -440.41)" fill="#483c32"/>
      <path id="Path_4757" data-name="Path 4757" d="M81.96,441.05h5.195v1.765H85.442v7.633H83.626v-7.633H81.96Z" transform="translate(-73.965 -440.816)" fill="#483c32"/>
      <path id="Path_4758" data-name="Path 4758" d="M103.4,441.05h1.9a6.24,6.24,0,0,1,2.219.278,2.268,2.268,0,0,1,1.062.923,2.843,2.843,0,0,1,.4,1.527,2.589,2.589,0,0,1-.443,1.549,2.737,2.737,0,0,1-1.336.945l2.226,4.177h-1.955l-2.112-3.979h-.165v3.979h-1.787v-9.4Zm1.787,3.676h.56a2.229,2.229,0,0,0,1.175-.223.841.841,0,0,0,.322-.743.9.9,0,0,0-.157-.534.888.888,0,0,0-.428-.326,3.257,3.257,0,0,0-.981-.1h-.491v1.929Z" transform="translate(-87.556 -440.816)" fill="#483c32"/>
      <path id="Path_4759" data-name="Path 4759" d="M127.39,441.044h5.129v1.75h-3.353v1.7h3.353v1.717h-3.353v2.471h3.353v1.757H127.39v-9.4Z" transform="translate(-102.763 -440.809)" fill="#483c32"/>
      <path id="Path_4760" data-name="Path 4760" d="M151.088,441.05H152.9l3.613,9.4h-1.86l-.736-1.937h-3.837l-.765,1.937h-1.86l3.624-9.4Zm.919,2.493-1.259,3.225h2.515l-1.252-3.225Z" transform="translate(-115.485 -440.816)" fill="#483c32"/>
      <path id="Path_4761" data-name="Path 4761" d="M179.215,441.05h1.743l2.178,6.553,2.2-6.553h1.743l1.578,9.4h-1.728l-1.007-5.934-2,5.934h-1.578l-1.981-5.934-1.032,5.934H177.59l1.625-9.4Z" transform="translate(-134.585 -440.816)" fill="#483c32"/>
      <path id="Path_4762" data-name="Path 4762" d="M215.28,441.05h1.79v7.692h2.607v1.706h-4.4Z" transform="translate(-158.477 -440.816)" fill="#483c32"/>
      <path id="Path_4763" data-name="Path 4763" d="M234.23,441.05h1.776v9.4H234.23Z" transform="translate(-170.49 -440.816)" fill="#483c32"/>
      <path id="Path_4764" data-name="Path 4764" d="M248.17,441.05h1.717l4.02,6.183V441.05h1.79v9.4h-1.721l-4.016-6.165v6.165h-1.79Z" transform="translate(-179.326 -440.816)" fill="#483c32"/>
      <path id="Path_4765" data-name="Path 4765" d="M278.17,441.044H283.3v1.75h-3.353v1.7H283.3v1.717h-3.353v2.471H283.3v1.757H278.17v-9.4Z" transform="translate(-198.344 -440.809)" fill="#483c32"/>
      <path id="Path_4766" data-name="Path 4766" d="M300.317,441.05h2.12a6.94,6.94,0,0,1,3.042.509,3.958,3.958,0,0,1,1.64,1.651,5.774,5.774,0,0,1,.282,4.664,4.129,4.129,0,0,1-1,1.512,3.5,3.5,0,0,1-1.377.831,9.765,9.765,0,0,1-2.566.231H300.31v-9.4Zm1.776,1.724V448.7h.831a4.168,4.168,0,0,0,1.779-.282,2.109,2.109,0,0,0,.9-.948,3.478,3.478,0,0,0,.351-1.636,3.1,3.1,0,0,0-.838-2.321,3.353,3.353,0,0,0-2.42-.74Z" transform="translate(-212.378 -440.816)" fill="#483c32"/>
      <path id="Path_4767" data-name="Path 4767" d="M342.47,441.05h1.816V444.6h3.137V441.05h1.809v9.4h-1.809v-4.122h-3.137v4.122H342.47Z" transform="translate(-239.104 -440.816)" fill="#483c32"/>
      <path id="Path_4768" data-name="Path 4768" d="M374,440.41a4.685,4.685,0,0,1,3.43,1.442,4.814,4.814,0,0,1,1.435,3.522,4.727,4.727,0,0,1-1.417,3.482,4.657,4.657,0,0,1-3.434,1.424,4.757,4.757,0,0,1-3.514-1.464,5.018,5.018,0,0,1-.75-5.953A4.93,4.93,0,0,1,374,440.41Zm-.018,1.75a2.95,2.95,0,0,0-2.193.908,3.155,3.155,0,0,0-.89,2.306,3.01,3.01,0,0,0,1.12,2.467,3.069,3.069,0,0,0,2,.71,2.917,2.917,0,0,0,2.167-.919,3.321,3.321,0,0,0-.007-4.54,2.944,2.944,0,0,0-2.193-.93Z" transform="translate(-255.985 -440.41)" fill="#483c32"/>
      <path id="Path_4769" data-name="Path 4769" d="M404.29,441.05h1.9a6.24,6.24,0,0,1,2.219.278,2.268,2.268,0,0,1,1.062.923,2.843,2.843,0,0,1,.4,1.527,2.589,2.589,0,0,1-.443,1.549,2.737,2.737,0,0,1-1.336.945l2.226,4.177h-1.955l-2.112-3.979h-.165v3.979h-1.79v-9.4Zm1.79,3.676h.56a2.229,2.229,0,0,0,1.175-.223.841.841,0,0,0,.322-.743.9.9,0,0,0-.157-.534.888.888,0,0,0-.428-.326,3.257,3.257,0,0,0-.981-.1h-.491v1.929Z" transform="translate(-278.292 -440.816)" fill="#483c32"/>
      <path id="Path_4770" data-name="Path 4770" d="M431.79,441.926l-1.325,1.168a1.879,1.879,0,0,0-1.42-.97.861.861,0,0,0-.575.187.544.544,0,0,0-.223.425.706.706,0,0,0,.161.447,12.521,12.521,0,0,0,1.311,1.208q1.021.857,1.241,1.08a3.721,3.721,0,0,1,.769,1.051,2.651,2.651,0,0,1,.227,1.095,2.517,2.517,0,0,1-.8,1.911,2.924,2.924,0,0,1-2.083.754,3.121,3.121,0,0,1-1.75-.491,3.885,3.885,0,0,1-1.274-1.545l1.5-.908c.45.831.974,1.245,1.56,1.245a1.156,1.156,0,0,0,.776-.267.8.8,0,0,0,.311-.619,1.079,1.079,0,0,0-.238-.641,6.845,6.845,0,0,0-1.043-.977,10.526,10.526,0,0,1-1.984-1.933,2.437,2.437,0,0,1-.447-1.358,2.224,2.224,0,0,1,.743-1.677,2.591,2.591,0,0,1,1.838-.7,2.919,2.919,0,0,1,1.34.326,4.789,4.789,0,0,1,1.377,1.186Z" transform="translate(-292.086 -440.41)" fill="#483c32"/>
      <path id="Path_4771" data-name="Path 4771" d="M450.43,441.044h5.129v1.75h-3.353v1.7h3.353v1.717h-3.353v2.471h3.353v1.757H450.43v-9.4Z" transform="translate(-307.54 -440.809)" fill="#483c32"/>
      <path id="Path_4772" data-name="Path 4772" d="M483.62,441.05h5.195v1.765H487.1v7.633h-1.816v-7.633H483.62Z" transform="translate(-328.58 -440.816)" fill="#483c32"/>
      <path id="Path_4773" data-name="Path 4773" d="M505.06,441.05h1.9a6.24,6.24,0,0,1,2.219.278,2.268,2.268,0,0,1,1.062.923,2.843,2.843,0,0,1,.4,1.527,2.589,2.589,0,0,1-.443,1.549,2.737,2.737,0,0,1-1.336.945l2.226,4.177h-1.955l-2.112-3.979h-.165v3.979h-1.787v-9.4Zm1.786,3.676h.56a2.229,2.229,0,0,0,1.175-.223.841.841,0,0,0,.322-.743.9.9,0,0,0-.157-.534.888.888,0,0,0-.428-.326,3.258,3.258,0,0,0-.981-.1h-.491v1.929Z" transform="translate(-342.171 -440.816)" fill="#483c32"/>
      <path id="Path_4774" data-name="Path 4774" d="M530.588,441.05H532.4l3.613,9.4h-1.86l-.736-1.937h-3.837l-.765,1.937h-1.86l3.624-9.4Zm.919,2.493-1.259,3.225h2.515l-1.252-3.225Z" transform="translate(-356.053 -440.816)" fill="#483c32"/>
      <path id="Path_4775" data-name="Path 4775" d="M559.06,441.05h1.717l4.02,6.183V441.05h1.79v9.4h-1.721l-4.016-6.165v6.165h-1.79Z" transform="translate(-376.402 -440.816)" fill="#483c32"/>
      <path id="Path_4776" data-name="Path 4776" d="M592.59,441.926l-1.325,1.168a1.878,1.878,0,0,0-1.42-.97.861.861,0,0,0-.575.187.544.544,0,0,0-.223.425.706.706,0,0,0,.161.447,12.125,12.125,0,0,0,1.311,1.208q1.021.857,1.241,1.08a3.72,3.72,0,0,1,.769,1.051,2.651,2.651,0,0,1,.227,1.095,2.517,2.517,0,0,1-.8,1.911,2.924,2.924,0,0,1-2.083.754,3.121,3.121,0,0,1-1.75-.491,3.885,3.885,0,0,1-1.274-1.545l1.5-.908c.45.831.974,1.245,1.56,1.245a1.15,1.15,0,0,0,.776-.267A.8.8,0,0,0,591,447.7a1.079,1.079,0,0,0-.238-.641,6.847,6.847,0,0,0-1.043-.977,10.525,10.525,0,0,1-1.984-1.933,2.437,2.437,0,0,1-.447-1.358,2.224,2.224,0,0,1,.743-1.677,2.591,2.591,0,0,1,1.838-.7,2.919,2.919,0,0,1,1.34.326,4.79,4.79,0,0,1,1.377,1.186Z" transform="translate(-394.018 -440.41)" fill="#483c32"/>
      <path id="Path_4777" data-name="Path 4777" d="M611.194,441.044h1.9a6.215,6.215,0,0,1,2.219.286,2.262,2.262,0,0,1,1.073.919,2.823,2.823,0,0,1,.392,1.523,2.56,2.56,0,0,1-.513,1.633,2.682,2.682,0,0,1-1.395.908,7.983,7.983,0,0,1-1.885.146v3.979h-1.79v-9.4Zm1.79,3.676h.567a3.156,3.156,0,0,0,.934-.1.812.812,0,0,0,.41-.318.937.937,0,0,0,.15-.534.859.859,0,0,0-.421-.794,2.394,2.394,0,0,0-1.138-.187h-.505v1.929Z" transform="translate(-409.447 -440.809)" fill="#483c32"/>
      <path id="Path_4778" data-name="Path 4778" d="M638.432,440.41a4.685,4.685,0,0,1,3.43,1.442,4.814,4.814,0,0,1,1.435,3.522,4.727,4.727,0,0,1-1.417,3.482,4.657,4.657,0,0,1-3.434,1.424,4.757,4.757,0,0,1-3.514-1.464,5.018,5.018,0,0,1-.75-5.953,4.785,4.785,0,0,1,1.794-1.79,4.841,4.841,0,0,1,2.457-.663Zm-.018,1.75a2.95,2.95,0,0,0-2.193.908,3.155,3.155,0,0,0-.89,2.306,3.01,3.01,0,0,0,1.12,2.467,3.068,3.068,0,0,0,2,.71,2.917,2.917,0,0,0,2.167-.919,3.321,3.321,0,0,0-.007-4.54,2.944,2.944,0,0,0-2.193-.93Z" transform="translate(-423.609 -440.41)" fill="#483c32"/>
      <path id="Path_4779" data-name="Path 4779" d="M668.72,441.05h1.9a6.24,6.24,0,0,1,2.219.278,2.268,2.268,0,0,1,1.062.923,2.844,2.844,0,0,1,.4,1.527,2.589,2.589,0,0,1-.443,1.549,2.737,2.737,0,0,1-1.336.945l2.226,4.177h-1.955l-2.112-3.979h-.165v3.979h-1.79v-9.4Zm1.79,3.676h.56a2.23,2.23,0,0,0,1.175-.223.841.841,0,0,0,.322-.743.9.9,0,0,0-.157-.534.888.888,0,0,0-.428-.326,3.257,3.257,0,0,0-.981-.1h-.491v1.929Z" transform="translate(-445.916 -440.816)" fill="#483c32"/>
      <path id="Path_4780" data-name="Path 4780" d="M690.17,441.05h5.195v1.765h-1.713v7.633h-1.816v-7.633H690.17Z" transform="translate(-459.513 -440.816)" fill="#483c32"/>
    </g>
  </g>
</svg>
